<?xml version="1.0" encoding="UTF-8"?> <svg xmlns="http://www.w3.org/2000/svg" id="Notebbok" viewBox="0 0 295.8 170"><style> .st0, .st1{fill:#25232a}.st4{fill:#f7f7f8}.st5{fill:#dd4a68}.st6{fill:#f5a43e}.st9{fill:#60bdbd;}.st8{fill:#60bdbd;} .path-animation path{ opacity: 0; -moz-animation:pathAnimation 10s ease-in-out alternate infinite; -webkit-animation:pathAnimation 10s ease-in-out alternate infinite; animation:pathAnimation 10s ease-in-out alternate infinite; } .path-animation path:nth-child(1){ animation-delay: 0.2s; } .path-animation path:nth-child(2){ animation-delay: 0.4s; } .path-animation path:nth-child(3){ animation-delay: 0.6s; } .path-animation path:nth-child(4){ animation-delay: 0.8s; } .path-animation path:nth-child(5){ animation-delay: 1s; } .path-animation path:nth-child(6){ animation-delay: 1.2s; } .path-animation path:nth-child(7){ animation-delay: 1.4s; } .path-animation path:nth-child(8){ animation-delay: 1.6s; } .path-animation path:nth-child(9){ animation-delay: 1.8s; } .path-animation path:nth-child(10){ animation-delay: 2.0s; } .path-animation path:nth-child(11){ animation-delay: 2.2s; } .path-animation path:nth-child(12){ animation-delay: 2.4s; } .path-animation path:nth-child(13){ animation-delay: 2.6s; } .path-animation path:nth-child(14){ animation-delay: 2.8s; } .path-animation path:nth-child(15){ animation-delay: 3.0s; } .path-animation path:nth-child(16){ animation-delay: 3.2s; } .path-animation path:nth-child(17){ animation-delay: 3.4s; } .path-animation path:nth-child(18){ animation-delay: 3.6s; } .path-animation path:nth-child(19){ animation-delay: 3.8s; } .path-animation path:nth-child(20){ animation-delay: 4.0s; } .path-animation path:nth-child(21){ animation-delay: 4.2s; } @-webkit-keyframes pathAnimation{ 0% {} 10%{ opacity: 1; } 60%{ opacity: 1; } 70%{ opacity: 0; } } @-moz-keyframes pathAnimation{ 0% {} 10%{ opacity: 1; } 60%{ opacity: 1; } 70%{ opacity: 0; } } </style><g id="Computer"><path d="M266.3 155.2H29.6V6.8c0-3.7 3-6.8 6.8-6.8h223.2c3.7 0 6.8 3 6.8 6.8v148.4z" class="st0"></path><path d="M295.8 163.8H0v-5.1c0-2 1.6-3.6 3.6-3.6h288.7c2 0 3.6 1.6 3.6 3.6v5.1z" class="st0"></path><path d="M295.8 163.8H0l12 6.2h271.8z" class="st0"></path><path fill="#373a49" d="M38.9 10.5h218v135h-218z"></path><path fill="#2a2e3d" d="M38.9 10.5h218V24h-218z"></path><path d="M175.2 159.1h-54.3l-3-3.9h60.3z" class="st4"></path></g><g id="Code" class="path-animation"><path class="st4" d="M86.5,37.9H52.7c-0.8,0-1.5-0.7-1.5-1.5l0,0c0-0.8,0.7-1.5,1.5-1.5h33.9c0.8,0,1.5,0.7,1.5,1.5l0,0 C88,37.3,87.3,37.9,86.5,37.9z"></path><path class="st4" d="M99.4,44.9H52.7c-0.8,0-1.5-0.7-1.5-1.5v0c0-0.8,0.7-1.5,1.5-1.5h46.8c0.8,0,1.5,0.7,1.5,1.5v0 C100.9,44.3,100.2,44.9,99.4,44.9z"></path><path class="st6" d="M159.1,44.9h-46.8c-0.8,0-1.5-0.7-1.5-1.5v0c0-0.8,0.7-1.5,1.5-1.5h46.8c0.8,0,1.5,0.7,1.5,1.5v0 C160.5,44.3,159.9,44.9,159.1,44.9z"></path><path class="st5" d="M191.4,44.9H172c-0.8,0-1.5-0.7-1.5-1.5v0c0-0.8,0.7-1.5,1.5-1.5h19.4c0.8,0,1.5,0.7,1.5,1.5v0 C192.9,44.3,192.2,44.9,191.4,44.9z"></path><path class="st4" d="M84.1,51.9H62.4c-0.8,0-1.5-0.7-1.5-1.5l0,0c0-0.8,0.7-1.5,1.5-1.5h21.7c0.8,0,1.5,0.7,1.5,1.5l0,0 C85.5,51.3,84.9,51.9,84.1,51.9z"></path><path class="st8" d="M102.5,58.9H74.7c-0.8,0-1.5-0.7-1.5-1.5v0c0-0.8,0.7-1.5,1.5-1.5h27.8c0.8,0,1.5,0.7,1.5,1.5v0 C103.9,58.3,103.3,58.9,102.5,58.9z"></path><path class="st6" d="M127.2,58.9h-11.8c-0.8,0-1.5-0.7-1.5-1.5v0c0-0.8,0.7-1.5,1.5-1.5h11.8c0.8,0,1.5,0.7,1.5,1.5v0 C128.7,58.3,128,58.9,127.2,58.9z"></path><path class="st8" d="M151.6,58.9h-11.8c-0.8,0-1.5-0.7-1.5-1.5v0c0-0.8,0.7-1.5,1.5-1.5h11.8c0.8,0,1.5,0.7,1.5,1.5v0 C153.1,58.3,152.4,58.9,151.6,58.9z"></path><path class="st4" d="M120.7,65.9h-46c-0.8,0-1.5-0.7-1.5-1.5v0c0-0.8,0.7-1.5,1.5-1.5h46c0.8,0,1.5,0.7,1.5,1.5v0 C122.2,65.3,121.5,65.9,120.7,65.9z"></path><path class="st6" d="M154.2,65.9h-20.6c-0.8,0-1.5-0.7-1.5-1.5v0c0-0.8,0.7-1.5,1.5-1.5h20.6c0.8,0,1.5,0.7,1.5,1.5v0 C155.7,65.3,155,65.9,154.2,65.9z"></path><path class="st8" d="M187.7,65.9h-20.6c-0.8,0-1.5-0.7-1.5-1.5v0c0-0.8,0.7-1.5,1.5-1.5h20.6c0.8,0,1.5,0.7,1.5,1.5v0 C189.1,65.3,188.5,65.9,187.7,65.9z"></path><path class="st4" d="M137,72.9H74.7c-0.8,0-1.5-0.7-1.5-1.5l0,0c0-0.8,0.7-1.5,1.5-1.5H137c0.8,0,1.5,0.7,1.5,1.5l0,0 C138.5,72.3,137.8,72.9,137,72.9z"></path><path class="st4" d="M84.1,80.9H62.4c-0.8,0-1.5-0.7-1.5-1.5v0c0-0.8,0.7-1.5,1.5-1.5h21.7c0.8,0,1.5,0.7,1.5,1.5v0 C85.5,80.2,84.9,80.9,84.1,80.9z"></path><path class="st4" d="M102.5,87.9H74.7c-0.8,0-1.5-0.7-1.5-1.5v0c0-0.8,0.7-1.5,1.5-1.5h27.8c0.8,0,1.5,0.7,1.5,1.5v0 C103.9,87.2,103.3,87.9,102.5,87.9z"></path><path class="st5" d="M153.2,87.9h-37.8c-0.8,0-1.5-0.7-1.5-1.5l0,0c0-0.8,0.7-1.5,1.5-1.5h37.8c0.8,0,1.5,0.7,1.5,1.5l0,0 C154.6,87.2,154,87.9,153.2,87.9z"></path><path class="st4" d="M120.7,94.9h-46c-0.8,0-1.5-0.7-1.5-1.5l0,0c0-0.8,0.7-1.5,1.5-1.5h46c0.8,0,1.5,0.7,1.5,1.5l0,0 C122.2,94.2,121.5,94.9,120.7,94.9z"></path><path class="st6" d="M154.2,94.9h-20.6c-0.8,0-1.5-0.7-1.5-1.5l0,0c0-0.8,0.7-1.5,1.5-1.5h20.6c0.8,0,1.5,0.7,1.5,1.5l0,0 C155.7,94.2,155,94.9,154.2,94.9z"></path><path class="st5" d="M214.4,94.9h-47.3c-0.8,0-1.5-0.7-1.5-1.5l0,0c0-0.8,0.7-1.5,1.5-1.5h47.3c0.8,0,1.5,0.7,1.5,1.5l0,0 C215.9,94.2,215.2,94.9,214.4,94.9z"></path><path class="st8" d="M137,101.9H74.7c-0.8,0-1.5-0.7-1.5-1.5l0,0c0-0.8,0.7-1.5,1.5-1.5H137c0.8,0,1.5,0.7,1.5,1.5l0,0 C138.5,101.2,137.8,101.9,137,101.9z"></path><path class="st4" d="M84.1,108.9H62.4c-0.8,0-1.5-0.7-1.5-1.5v0c0-0.8,0.7-1.5,1.5-1.5h21.7c0.8,0,1.5,0.7,1.5,1.5v0 C85.5,108.2,84.9,108.9,84.1,108.9z"></path><path class="st4" d="M52.7,115.9h6.8c0.8,0,1.5-0.7,1.5-1.5l0,0c0-0.8-0.7-1.5-1.5-1.5h-6.8c-0.8,0-1.5,0.7-1.5,1.5l0,0 C51.2,115.2,51.9,115.9,52.7,115.9z"></path></g></svg> 